<svg xmlns="http://www.w3.org/2000/svg" viewBox="0 0 512 512" width="512" height="512">
  <defs>
    <radialGradient id="bgGlow" cx="50%" cy="50%" r="50%">
      <stop offset="0%" stop-color="#6b2d6c" stop-opacity="0.6"/>
      <stop offset="70%" stop-color="#2d0a2e" stop-opacity="0.9"/>
      <stop offset="100%" stop-color="#1a0520"/>
    </radialGradient>
    <linearGradient id="goldGrad" x1="0%" y1="0%" x2="100%" y2="100%">
      <stop offset="0%" stop-color="#f0d68a"/>
      <stop offset="30%" stop-color="#d4a843"/>
      <stop offset="70%" stop-color="#b8912e"/>
      <stop offset="100%" stop-color="#d4a843"/>
    </linearGradient>
    <linearGradient id="goldGrad2" x1="50%" y1="0%" x2="50%" y2="100%">
      <stop offset="0%" stop-color="#f0d68a"/>
      <stop offset="50%" stop-color="#d4a843"/>
      <stop offset="100%" stop-color="#b8912e"/>
    </linearGradient>
    <linearGradient id="purpleGrad" x1="0%" y1="0%" x2="100%" y2="100%">
      <stop offset="0%" stop-color="#4a154b"/>
      <stop offset="100%" stop-color="#2d0a2e"/>
    </linearGradient>
    <radialGradient id="crossGlow" cx="50%" cy="45%" r="40%">
      <stop offset="0%" stop-color="#f0d68a" stop-opacity="0.4"/>
      <stop offset="60%" stop-color="#d4a843" stop-opacity="0.1"/>
      <stop offset="100%" stop-color="#d4a843" stop-opacity="0"/>
    </radialGradient>
    <linearGradient id="coinGold" x1="0%" y1="0%" x2="100%" y2="100%">
      <stop offset="0%" stop-color="#f5e6b8"/>
      <stop offset="25%" stop-color="#d4a843"/>
      <stop offset="50%" stop-color="#f0d68a"/>
      <stop offset="75%" stop-color="#b8912e"/>
      <stop offset="100%" stop-color="#d4a843"/>
    </linearGradient>
    <filter id="glow">
      <feGaussianBlur stdDeviation="4" result="blur"/>
      <feMerge>
        <feMergeNode in="blur"/>
        <feMergeNode in="SourceGraphic"/>
      </feMerge>
    </filter>
    <filter id="softGlow">
      <feGaussianBlur stdDeviation="8" result="blur"/>
      <feMerge>
        <feMergeNode in="blur"/>
        <feMergeNode in="SourceGraphic"/>
      </feMerge>
    </filter>
    <filter id="innerShadow">
      <feOffset dx="0" dy="2"/>
      <feGaussianBlur stdDeviation="3"/>
      <feComposite operator="out" in="SourceGraphic"/>
      <feColorMatrix values="0 0 0 0 0 0 0 0 0 0 0 0 0 0 0 0 0 0 0.3 0"/>
      <feBlend in="SourceGraphic"/>
    </filter>
  </defs>

  <!-- Background circle -->
  <circle cx="256" cy="256" r="252" fill="url(#purpleGrad)" stroke="url(#goldGrad)" stroke-width="4"/>
  <circle cx="256" cy="256" r="240" fill="none" stroke="url(#goldGrad)" stroke-width="1.5" opacity="0.5"/>
  <circle cx="256" cy="256" r="244" fill="none" stroke="#f0d68a" stroke-width="0.5" opacity="0.3"/>

  <!-- Background glow -->
  <circle cx="256" cy="256" r="230" fill="url(#crossGlow)"/>

  <!-- Light rays emanating from cross -->
  <g opacity="0.15" fill="#f0d68a">
    <polygon points="256,80 260,180 252,180"/>
    <polygon points="256,432 260,332 252,332"/>
    <polygon points="80,256 180,252 180,260"/>
    <polygon points="432,256 332,252 332,260"/>
    <polygon points="148,148 200,200 192,208"/>
    <polygon points="364,148 312,200 320,208"/>
    <polygon points="148,364 200,312 192,320"/>
    <polygon points="364,364 312,312 320,320"/>
  </g>

  <!-- Subtle radiating lines -->
  <g opacity="0.08" stroke="#f0d68a" stroke-width="0.5" fill="none">
    <line x1="256" y1="120" x2="256" y2="190"/>
    <line x1="256" y1="322" x2="256" y2="392"/>
    <line x1="120" y1="256" x2="190" y2="256"/>
    <line x1="322" y1="256" x2="392" y2="256"/>
    <line x1="160" y1="160" x2="205" y2="205"/>
    <line x1="307" y1="307" x2="352" y2="352"/>
    <line x1="352" y1="160" x2="307" y2="205"/>
    <line x1="205" y1="307" x2="160" y2="352"/>
  </g>

  <!-- === MAIN CROSS === -->
  <g filter="url(#glow)">
    <!-- Cross body - vertical beam -->
    <rect x="239" y="105" width="34" height="230" rx="3" ry="3" fill="url(#goldGrad2)"/>
    <!-- Cross body - horizontal beam -->
    <rect x="160" y="175" width="192" height="30" rx="3" ry="3" fill="url(#goldGrad)"/>

    <!-- Cross edge highlights -->
    <rect x="241" y="107" width="4" height="226" rx="1" fill="#f0d68a" opacity="0.5"/>
    <rect x="162" y="177" width="188" height="4" rx="1" fill="#f0d68a" opacity="0.5"/>

    <!-- Cross shadow edges -->
    <rect x="267" y="107" width="4" height="226" rx="1" fill="#8a6a1e" opacity="0.4"/>
    <rect x="162" y="201" width="188" height="3" rx="1" fill="#8a6a1e" opacity="0.4"/>

    <!-- Cross top finial - fleur-de-lis style -->
    <path d="M256,95 C252,95 248,90 248,85 C248,80 250,76 256,72 C262,76 264,80 264,85 C264,90 260,95 256,95Z" fill="url(#goldGrad)" filter="url(#glow)"/>
    <circle cx="256" cy="82" r="4" fill="#f0d68a"/>

    <!-- Cross bottom finial -->
    <path d="M256,335 C252,335 248,340 248,345 C248,350 250,354 256,358 C262,354 264,350 264,345 C264,340 260,335 256,335Z" fill="url(#goldGrad)" filter="url(#glow)"/>

    <!-- Cross left finial -->
    <path d="M150,190 C150,186 145,182 140,182 C135,182 131,184 127,190 C131,196 135,198 140,198 C145,198 150,194 150,190Z" fill="url(#goldGrad)" filter="url(#glow)"/>

    <!-- Cross right finial -->
    <path d="M362,190 C362,186 367,182 372,182 C377,182 381,184 385,190 C381,196 377,198 372,198 C367,198 362,194 362,190Z" fill="url(#goldGrad)" filter="url(#glow)"/>

    <!-- Center jewel / crossroads diamond -->
    <polygon points="256,178 270,190 256,202 242,190" fill="#f0d68a" filter="url(#glow)"/>
    <polygon points="256,181 267,190 256,199 245,190" fill="url(#coinGold)"/>
    <circle cx="256" cy="190" r="3" fill="#fff" opacity="0.6"/>
  </g>

  <!-- Decorative dots at cross endpoints -->
  <circle cx="256" cy="108" r="2.5" fill="#f0d68a" opacity="0.7"/>
  <circle cx="256" cy="333" r="2.5" fill="#f0d68a" opacity="0.7"/>
  <circle cx="163" cy="190" r="2.5" fill="#f0d68a" opacity="0.7"/>
  <circle cx="349" cy="190" r="2.5" fill="#f0d68a" opacity="0.7"/>

  <!-- Inner ornamental ring -->
  <circle cx="256" cy="256" r="175" fill="none" stroke="url(#goldGrad)" stroke-width="1" opacity="0.3" stroke-dasharray="4,8"/>

  <!-- Wheat/grain accents (storehouse symbol) -->
  <!-- Left wheat stalk -->
  <g opacity="0.6" transform="translate(88, 310) rotate(-25)">
    <path d="M0,80 Q5,40 0,0" stroke="url(#goldGrad)" stroke-width="1.5" fill="none"/>
    <ellipse cx="-5" cy="20" rx="6" ry="3" fill="#d4a843" opacity="0.7" transform="rotate(-20,-5,20)"/>
    <ellipse cx="5" cy="30" rx="6" ry="3" fill="#d4a843" opacity="0.7" transform="rotate(20,5,30)"/>
    <ellipse cx="-5" cy="40" rx="6" ry="3" fill="#d4a843" opacity="0.7" transform="rotate(-20,-5,40)"/>
    <ellipse cx="5" cy="50" rx="6" ry="3" fill="#d4a843" opacity="0.7" transform="rotate(20,5,50)"/>
    <ellipse cx="-3" cy="60" rx="5" ry="2.5" fill="#d4a843" opacity="0.6" transform="rotate(-15,-3,60)"/>
  </g>

  <!-- Right wheat stalk -->
  <g opacity="0.6" transform="translate(424, 310) rotate(25) scale(-1,1)">
    <path d="M0,80 Q5,40 0,0" stroke="url(#goldGrad)" stroke-width="1.5" fill="none"/>
    <ellipse cx="-5" cy="20" rx="6" ry="3" fill="#d4a843" opacity="0.7" transform="rotate(-20,-5,20)"/>
    <ellipse cx="5" cy="30" rx="6" ry="3" fill="#d4a843" opacity="0.7" transform="rotate(20,5,30)"/>
    <ellipse cx="-5" cy="40" rx="6" ry="3" fill="#d4a843" opacity="0.7" transform="rotate(-20,-5,40)"/>
    <ellipse cx="5" cy="50" rx="6" ry="3" fill="#d4a843" opacity="0.7" transform="rotate(20,5,50)"/>
    <ellipse cx="-3" cy="60" rx="5" ry="2.5" fill="#d4a843" opacity="0.6" transform="rotate(-15,-3,60)"/>
  </g>

  <!-- Decorative scroll / ribbon at bottom -->
  <g opacity="0.5">
    <path d="M140,395 Q180,410 220,395 Q256,380 292,395 Q332,410 372,395" stroke="url(#goldGrad)" stroke-width="1.5" fill="none"/>
    <path d="M155,405 Q195,420 235,405 Q256,393 277,405 Q317,420 357,405" stroke="url(#goldGrad)" stroke-width="1" fill="none" opacity="0.5"/>
  </g>

  <!-- Text: THE LORD'S -->
  <text x="256" y="445" text-anchor="middle" font-family="Georgia, 'Times New Roman', serif" font-size="28" font-weight="bold" fill="url(#goldGrad)" letter-spacing="4" filter="url(#glow)">THE LORD'S</text>

  <!-- Text: STORE-HOUSE -->
  <text x="256" y="478" text-anchor="middle" font-family="Georgia, 'Times New Roman', serif" font-size="22" fill="#f0d68a" letter-spacing="6" opacity="0.9">STORE-HOUSE</text>

  <!-- Small decorative line under text -->
  <line x1="180" y1="488" x2="332" y2="488" stroke="url(#goldGrad)" stroke-width="1" opacity="0.4"/>

  <!-- Scripture reference (tiny) -->
  <text x="256" y="503" text-anchor="middle" font-family="Georgia, 'Times New Roman', serif" font-size="9" fill="#d4a843" opacity="0.5" font-style="italic">Malachi 3:10</text>
</svg>